<svg width="0" height="0" class="hidden">
		<symbol xmlns="http://www.w3.org/2000/svg" viewBox="0 0 69 71" id="logo">
			<path d="M63.675 68.857l-28.815-55-28.814 55h57.629z" fill-rule="evenodd" stroke="currentColor" fill="none"
				stroke-width="2"></path>
			<path d="M34.5 1A33.216 33.216 0 1 1 1 34.214 33.357 33.357 0 0 1 34.5 1z" stroke="currentColor"
				fill-rule="evenodd" fill="none" stroke-width="2"></path>
			<path d="M34.86 63.857a3.572 3.572 0 1 1-3.6 3.572 3.587 3.587 0 0 1 3.6-3.572z"></path>
			<circle cx="61.515" cy="67.422" r="3.61"></circle>
			<path d="M6.043 63.857a3.572 3.572 0 1 1-3.6 3.572 3.587 3.587 0 0 1 3.6-3.572z"></path>
		</symbol>
	</svg>